<svg width="17" height="17" viewBox="0 0 17 17" fill="none" xmlns="http://www.w3.org/2000/svg">
<g id="add-user 1">
<path id="Vector" fill-rule="evenodd" clip-rule="evenodd" d="M6.88776 8.95285C8.77309 8.95285 10.2843 7.42205 10.2843 5.51231C10.2843 3.6026 8.77309 2.07178 6.88776 2.07178C5.00244 2.07178 3.49117 3.6026 3.49117 5.51231C3.49117 7.42205 5.00244 8.95285 6.88776 8.95285ZM6.88776 10.6376C4.1187 10.6376 1.75452 11.0803 1.75452 12.8491C1.75452 14.6173 4.10431 15.076 6.88776 15.076C9.65615 15.076 12.021 14.6332 12.021 12.8644C12.021 11.0956 9.6712 10.6376 6.88776 10.6376ZM14.0044 6.92294H14.8279C15.1668 6.92294 15.4432 7.20318 15.4432 7.54689C15.4432 7.89054 15.1668 8.17082 14.8279 8.17082H14.0044V8.9766C14.0044 9.32032 13.7288 9.60053 13.3892 9.60053C13.0502 9.60053 12.7739 9.32032 12.7739 8.9766V8.17082H11.9519C11.6122 8.17082 11.3366 7.89054 11.3366 7.54689C11.3366 7.20318 11.6122 6.92294 11.9519 6.92294H12.7739V6.11788C12.7739 5.77418 13.0502 5.49394 13.3892 5.49394C13.7288 5.49394 14.0044 5.77418 14.0044 6.11788V6.92294Z" fill="white"/>
</g>
</svg>
