<svg width="114" height="32" viewBox="0 0 114 32" fill="none" xmlns="http://www.w3.org/2000/svg">
<g id="Group 2">
<path id="path4354" d="M54.4224 25.0368H50.9074C50.8852 25.0368 50.8852 25.0368 50.8741 25.0257L47.8485 21.3327L44.8229 25.0257C44.8118 25.0368 44.8007 25.0368 44.7896 25.0368H41.9754C41.9531 25.0368 41.942 25.0257 41.9309 25.0146C41.9309 25.0034 41.9309 24.9812 41.942 24.9701L46.4025 19.4974L41.9976 14.0803C41.9865 14.0581 41.9865 14.0469 41.9865 14.0247C41.9976 14.0136 42.0087 14.0024 42.0199 14.0024H45.5348C45.546 14.0024 45.5571 14.0136 45.5682 14.0247L48.2267 17.3172L50.9297 14.0247C50.9408 14.0136 50.9519 14.0024 50.963 14.0024H53.8217C53.8329 14.0024 53.8551 14.0136 53.8662 14.0247C53.8774 14.0469 53.8662 14.0581 53.8551 14.0803L49.6839 19.0969L54.4669 24.9701C54.478 24.9812 54.478 25.0034 54.478 25.0146C54.4558 25.0368 54.4446 25.0368 54.4224 25.0368Z" fill="#191825" fill-opacity="0.5"/>
<path id="path4358" d="M73.4322 15.9379C71.875 15.9379 70.8182 16.8834 70.5068 18.5185H75.8015V18.4073C75.8015 17.1059 74.8338 15.9379 73.4322 15.9379ZM78.5267 20.2093C78.5156 20.2204 78.5045 20.2315 78.4933 20.2315H70.4512C70.618 22.1002 71.8305 23.1681 73.7993 23.1681C75.0117 23.1681 76.302 22.7565 78.1152 21.7888C78.1485 21.7665 78.1819 21.7999 78.1819 21.8333V24.3027C78.1819 24.3249 78.1708 24.336 78.1596 24.336C76.4689 25.0479 74.767 25.5374 73.4322 25.5374C69.9729 25.5374 67.459 23.0124 67.459 19.5419C67.459 16.0714 69.9729 13.5464 73.4322 13.5464C76.5913 13.5464 78.6157 15.6709 78.6157 18.5964C78.6157 19.0747 78.5378 20.1759 78.5267 20.2093Z" fill="#191825" fill-opacity="0.5"/>
<path id="path4362" d="M94.8557 11.711C93.8658 11.711 93.0649 10.9212 93.0649 9.95349C93.0649 8.95239 93.8658 8.14038 94.8557 8.14038C95.8457 8.14038 96.6466 8.95239 96.6466 9.95349C96.6466 10.9212 95.8457 11.711 94.8557 11.711ZM93.4097 25.0368C93.3763 25.0368 93.3652 25.0256 93.3652 24.9923V14.0358C93.3652 14.0135 93.3763 13.9913 93.3986 13.9913H96.3018C96.324 13.9913 96.3351 14.0135 96.3351 14.0358V24.9923C96.3351 25.0256 96.3129 25.0368 96.2907 25.0368H93.4097Z" fill="#191825" fill-opacity="0.5"/>
<path id="path4366" d="M59.7392 23.3906C59.2164 23.3906 58.6825 23.3127 58.0596 23.157L58.0707 16.127C58.7938 15.8934 59.4167 15.7933 60.0396 15.7933C62.0529 15.7933 63.3988 17.2727 63.3988 19.4863C63.3988 21.8555 61.9639 23.3906 59.7392 23.3906ZM60.529 13.5464C59.7059 13.5464 58.8827 13.691 58.0151 13.9913H55.123C55.1008 13.9913 55.0786 14.0136 55.0786 14.0358V32C55.9462 31.8777 57.014 31.5662 58.0596 30.8321V25.3705C58.7715 25.4706 59.361 25.5374 59.9283 25.5374C63.8882 25.5374 66.4466 23.1681 66.4466 19.4974C66.4466 15.9935 64.0106 13.5464 60.529 13.5464Z" fill="#191825" fill-opacity="0.5"/>
<path id="path4370" d="M88.1261 22.4783C87.2251 22.9566 86.4131 23.1791 85.6567 23.1791C83.8658 23.1791 82.7869 21.911 82.7869 19.7865C82.7869 17.3393 84.155 15.7487 86.2796 15.7487C86.8691 15.7487 87.4364 15.8933 88.1261 16.2047V22.4783ZM88.1261 8.19592V13.9244C87.2807 13.6797 86.5354 13.5685 85.7791 13.5685C82.3308 13.5685 79.7391 16.1602 79.7391 19.6085C79.7391 23.0345 82.0305 25.5261 85.1895 25.5261C86.2796 25.5261 87.303 25.248 88.5043 24.6362V25.6262C89.294 25.4705 90.2061 25.159 91.1071 24.5139V7.01685C90.2284 7.1392 89.1828 7.43953 88.1261 8.19592Z" fill="#191825" fill-opacity="0.5"/>
<path id="path4374" d="M106.402 22.4562C105.523 22.9567 104.778 23.2014 104.11 23.2014C102.186 23.2014 101.04 21.9334 101.04 19.8088C101.04 17.395 102.397 15.771 104.411 15.771C104.945 15.771 105.601 15.9824 106.402 16.4051V22.4562ZM109.383 13.8578C109.383 13.7911 109.327 13.7355 109.261 13.7355H106.914C106.847 13.7355 106.78 13.7911 106.78 13.8578V14.2583H106.724C105.645 13.7799 104.711 13.5686 103.81 13.5686C100.562 13.5686 98.0148 16.2605 98.0148 19.7087C98.0148 23.1903 100.295 25.5262 103.688 25.5262C104.589 25.5262 105.757 25.4595 106.847 24.2136V25.6263C107.614 25.4595 108.526 25.1369 109.383 24.514V13.8578Z" fill="#191825" fill-opacity="0.5"/>
<path id="path4378" d="M33.9442 22.3004H41.23C41.1188 23.1124 40.8407 24.069 40.2178 25.0367H32.6428C31.7196 25.0367 30.9521 24.3137 30.8631 23.4127C30.8631 23.4016 30.852 23.3905 30.852 23.3682V8.99687C30.852 8.98575 30.8631 8.97462 30.8631 8.9635C30.9521 8.05139 31.7196 7.32837 32.6428 7.32837H41.2189C41.1077 8.14037 40.8296 9.11923 40.1956 10.087H33.9442V14.0024H40.14C40.1622 14.0024 40.1844 14.0246 40.1844 14.0469V16.761C40.1844 16.7832 40.1622 16.8055 40.14 16.8055H33.9442V22.3004Z" fill="#191825" fill-opacity="0.5"/>
<path id="path4382" d="M24.8233 25.2704C24.1002 25.2704 23.6553 24.7031 23.6553 24.0135C23.6553 23.2793 24.167 22.7565 24.8233 22.7565C25.4684 22.7565 25.9801 23.2682 25.9801 24.0135C25.9801 24.7587 25.4684 25.2704 24.8233 25.2704ZM24.8233 22.623C24.0891 22.623 23.4551 23.1792 23.4551 24.0135C23.4551 24.8032 24.0224 25.4039 24.8233 25.4039C25.5463 25.4039 26.1803 24.8477 26.1803 24.0135C26.1803 23.1792 25.5574 22.623 24.8233 22.623Z" fill="#191825" fill-opacity="0.5"/>
<path id="path4386" d="M24.5004 23.9022V23.3905H24.8452C25.0232 23.3905 25.2234 23.4128 25.2234 23.6241C25.2234 23.88 25.0343 23.8911 24.823 23.8911C24.8118 23.9022 24.5004 23.9022 24.5004 23.9022ZM25.4681 23.6575C25.4681 23.3238 25.2679 23.1792 24.8674 23.1792H24.2445V24.8255H24.5115V24.1247H24.7673L25.19 24.8255H25.5015L25.0454 24.1024C25.2901 24.0802 25.4681 23.9578 25.4681 23.6575Z" fill="#191825" fill-opacity="0.5"/>
<path id="path4390" d="M111.785 15.8154C111.062 15.8154 110.617 15.2481 110.617 14.5585C110.617 13.8244 111.129 13.3016 111.785 13.3016C112.431 13.3016 112.942 13.8132 112.942 14.5585C112.942 15.3038 112.431 15.8154 111.785 15.8154ZM111.785 13.1792C111.051 13.1792 110.417 13.7354 110.417 14.5696C110.417 15.3594 110.984 15.96 111.785 15.96C112.508 15.96 113.142 15.4039 113.142 14.5696C113.142 13.7242 112.508 13.1792 111.785 13.1792Z" fill="#191825" fill-opacity="0.5"/>
<path id="path4394" d="M111.452 14.4472V13.9467H111.797C111.975 13.9467 112.175 13.9689 112.175 14.1803C112.175 14.4361 111.986 14.4472 111.774 14.4472H111.452ZM112.431 14.2137C112.431 13.88 112.23 13.7354 111.83 13.7354H111.207V15.3816H111.474V14.6808H111.73L112.153 15.3816H112.464L112.008 14.6586C112.242 14.6363 112.431 14.514 112.431 14.2137Z" fill="#191825" fill-opacity="0.5"/>
<path id="path4398" d="M15.4238 10.0759L14.901 8.58534L10.4072 2.58985L11.2081 2.38963L18.9388 9.07476L23.4883 7.77333C24.0222 7.63985 24.634 7.60648 25.09 7.60648C23.6662 4.52531 21.0411 1.98919 17.5929 0.765622C10.7743 -1.67039 3.26602 1.9002 0.841125 8.72994C0.0847372 10.8434 -0.082113 13.0236 0.229341 15.0925L11.1191 11.3106L15.4238 10.0759Z" fill="#191825" fill-opacity="0.5"/>
<path id="path4402" d="M25.5795 8.78564C25.1791 9.04148 24.5895 9.38631 24.0111 9.5754L19.4506 10.8768L16.4139 20.6431L15.6241 20.899L16.2693 13.4463L15.9133 11.9002L11.642 13.1238L0.340637 15.76C1.24163 20.0981 4.31167 23.8912 8.79438 25.4818C15.6241 27.9178 23.1213 24.3472 25.5573 17.5175C26.6029 14.592 26.5361 11.522 25.5795 8.78564Z" fill="#191825" fill-opacity="0.5"/>
<path id="path4406" d="M15.9023 11.8889L16.2583 13.435L15.6131 20.8877L16.4029 20.6318L19.4395 10.8655L24.0001 9.5641C24.5785 9.37501 25.1681 9.0413 25.5685 8.77434C25.4239 8.3739 25.2682 7.98459 25.0902 7.59527C24.623 7.59527 24.0224 7.61752 23.4884 7.76212L18.939 9.06355L11.2083 2.37842L10.4074 2.57864L14.8901 8.57412L15.4129 10.0647L11.1081 11.2993L0.218384 15.0813C0.251754 15.3038 0.296247 15.5373 0.340741 15.7598L11.6309 13.1013L15.9023 11.8889Z" fill="white"/>
</g>
</svg>
