<svg width="104" height="32" viewBox="0 0 104 32" fill="none" xmlns="http://www.w3.org/2000/svg">
<g id="Group 9235">
<path id="Vector" d="M54.989 8.04048C54.989 9.19374 54.0597 10.1224 52.9065 10.1224C51.7532 10.1224 50.8246 9.19374 50.8246 8.04048C50.8246 6.88723 51.7215 5.9586 52.9065 5.9586C54.0924 5.9906 54.989 6.91955 54.989 8.04048ZM46.4042 12.2369V12.7495C46.4042 12.7495 45.4116 11.4676 43.2974 11.4676C39.8063 11.4676 37.0831 14.1264 37.0831 17.8099C37.0831 21.4617 39.7743 24.1522 43.2974 24.1522C45.4436 24.1522 46.4042 22.8389 46.4042 22.8389V23.3832C46.4042 23.6395 46.5968 23.8312 46.8528 23.8312H49.447V11.787H46.8528C46.5968 11.7879 46.4042 12.0126 46.4042 12.2369ZM46.4042 19.9561C45.9242 20.661 44.963 21.2697 43.81 21.2697C41.7601 21.2697 40.1903 19.9884 40.1903 17.8099C40.1903 15.6317 41.7601 14.3504 43.81 14.3504C44.9313 14.3504 45.9562 14.9911 46.4042 15.6637V19.9561ZM51.3692 11.7879H54.444V23.8322H51.3692V11.7879ZM97.3027 11.4673C95.1885 11.4673 94.1952 12.7492 94.1952 12.7492V5.9906H91.1204V23.8322H93.7152C93.9716 23.8322 94.1632 23.6078 94.1632 23.3835V22.8392C94.1632 22.8392 95.1565 24.1525 97.2701 24.1525C100.762 24.1525 103.484 21.4626 103.484 17.8108C103.484 14.1591 100.762 11.4673 97.3027 11.4673ZM96.7901 21.2373C95.6045 21.2373 94.6759 20.6293 94.1952 19.9241V15.6317C94.6759 14.9911 95.7008 14.3184 96.7901 14.3184C98.8399 14.3184 100.41 15.5997 100.41 17.7779C100.41 19.9561 98.8403 21.2373 96.7901 21.2373ZM89.5192 16.6893V23.8642H86.4437V17.0413C86.4437 15.0557 85.8031 14.2544 84.0745 14.2544C83.1459 14.2544 82.1846 14.7351 81.575 15.44V23.8325H78.5008V11.7882H80.9344C81.1907 11.7882 81.383 12.0126 81.383 12.2369V12.7495C82.28 11.8202 83.4649 11.4676 84.6498 11.4676C85.9954 11.4676 87.1167 11.8526 88.0136 12.6212C89.1022 13.5181 89.5192 14.6711 89.5192 16.6893ZM71.0363 11.4673C68.9228 11.4673 67.9295 12.7492 67.9295 12.7492V5.9906H64.8547V23.8322H67.4489C67.7052 23.8322 67.8975 23.6078 67.8975 23.3835V22.8392C67.8975 22.8392 68.8908 24.1525 71.0043 24.1525C74.4961 24.1525 77.2186 21.4626 77.2186 17.8108C77.2506 14.1588 74.5281 11.4673 71.0363 11.4673ZM70.5237 21.2373C69.3388 21.2373 68.4102 20.6293 67.9295 19.9241V15.6317C68.4102 14.9911 69.4351 14.3184 70.5237 14.3184C72.5742 14.3184 74.1435 15.5997 74.1435 17.7779C74.1435 19.9561 72.5742 21.2373 70.5237 21.2373ZM62.1959 11.4673C63.1245 11.4673 63.6051 11.6279 63.6051 11.6279V14.4784C63.6051 14.4784 61.0426 13.6135 59.4414 15.4397V23.8638H56.3659V11.7879H58.9608C59.2171 11.7879 59.4087 12.0122 59.4087 12.2366V12.7492C59.986 12.0762 61.2353 11.4673 62.1959 11.4673ZM30.2608 22.7429C30.1008 22.3586 29.9405 21.9423 29.7805 21.5897C29.5239 21.0133 29.2676 20.4684 29.0439 19.9561L29.0119 19.9241C26.8014 15.1191 24.4315 10.2507 21.9327 5.4463L21.8367 5.25365C21.5739 4.75525 21.3178 4.25336 21.0684 3.74809C20.7478 3.17114 20.4278 2.56315 19.9151 1.9862C18.8902 0.704946 17.4166 0 15.8474 0C14.2455 0 12.8042 0.70495 11.7476 1.92189C11.267 2.49819 10.9144 3.10683 10.5944 3.68377C10.3444 4.18872 10.0883 4.69061 9.82606 5.18934L9.72975 5.38197C7.26324 10.1864 4.86104 15.0551 2.65085 19.8598L2.61853 19.9234C2.39454 20.4367 2.1379 20.981 1.88158 21.557C1.72159 21.9096 1.56159 22.294 1.40159 22.7103C0.984963 23.8952 0.856639 25.0165 1.01728 26.17C1.36959 28.5726 2.97084 30.5898 5.18135 31.4874C6.01429 31.84 6.87924 32 7.77586 32C8.03217 32 8.35218 31.968 8.60881 31.9357C9.66607 31.8077 10.755 31.4557 11.8123 30.8471C13.1255 30.1101 14.3748 29.0535 15.784 27.5159C17.1933 29.0535 18.4745 30.1101 19.7558 30.8471C20.8134 31.4557 21.902 31.8077 22.9589 31.9357C23.2152 31.9683 23.5359 32 23.7922 32C24.6891 32 25.5857 31.84 26.3864 31.4874C28.6289 30.5898 30.1981 28.5406 30.5508 26.17C30.8052 25.0491 30.6772 23.9285 30.2608 22.7429ZM15.8151 24.4085C14.0852 22.2303 12.9639 20.1804 12.5799 18.4512C12.4199 17.7142 12.3876 17.0736 12.4839 16.497C12.5476 15.9843 12.7402 15.5357 12.9966 15.1514C13.6052 14.2871 14.6301 13.7421 15.8154 13.7421C17.001 13.7421 18.0579 14.2548 18.6345 15.1514C18.8908 15.5357 19.0828 15.9846 19.1475 16.497C19.2432 17.0739 19.2112 17.7462 19.0512 18.4512C18.6656 20.1484 17.5443 22.1986 15.8151 24.4085ZM28.595 25.914C28.371 27.5796 27.2497 29.0215 25.6805 29.6621C24.9118 29.9821 24.0786 30.0784 23.2463 29.9821C22.4456 29.8858 21.6444 29.6295 20.8121 29.1495C19.6588 28.5082 18.5059 27.5159 17.1603 26.042C19.2742 23.4478 20.5555 21.077 21.0361 18.9635C21.2604 17.9702 21.2927 17.0736 21.1961 16.2403C21.0684 15.4397 20.7798 14.7027 20.3314 14.0621C19.3379 12.6202 17.672 11.7879 15.8147 11.7879C13.9575 11.7879 12.2916 12.6529 11.2987 14.0621C10.8504 14.7027 10.5617 15.4397 10.4337 16.2403C10.3057 17.0736 10.3374 18.0022 10.5937 18.9635C11.074 21.077 12.3873 23.4795 14.4692 26.074C13.1559 27.5476 11.9707 28.5409 10.8174 29.1815C9.98446 29.6621 9.18416 29.9184 8.38353 30.0141C7.51891 30.1104 6.68565 29.9821 5.94902 29.6941C4.37977 29.0535 3.25852 27.6116 3.03452 25.946C2.93852 25.1454 3.0022 24.3448 3.32283 23.4478C3.41851 23.1272 3.57915 22.8072 3.73914 22.4229C3.96346 21.9103 4.21914 21.3653 4.47577 20.821L4.50809 20.7573C6.71797 15.9843 9.08816 11.1156 11.5547 6.37523L11.6507 6.1826C11.9073 5.70261 12.1636 5.18998 12.4196 4.70935C12.6759 4.19672 12.9639 3.71609 13.3165 3.29946C13.9892 2.53147 14.8858 2.11452 15.8791 2.11452C16.8723 2.11452 17.7689 2.53147 18.4416 3.29946C18.7942 3.71705 19.0822 4.19768 19.3385 4.70935C19.5951 5.18998 19.8515 5.70261 20.1071 6.1826L20.2035 6.37523C22.6323 11.1353 24.9711 15.9409 27.2183 20.7893V20.8213C27.475 21.3346 27.699 21.9106 27.9553 22.4239C28.1153 22.8075 28.2756 23.1275 28.3716 23.4482C28.6273 24.2802 28.7233 25.0814 28.595 25.914Z" fill="#191825" fill-opacity="0.5"/>
</g>
</svg>
