<svg width="48" height="49" viewBox="0 0 48 49" fill="none" xmlns="http://www.w3.org/2000/svg">
<g id="calendar 1">
<path id="Vector" fill-rule="evenodd" clip-rule="evenodd" d="M32.8218 5.91737L32.8238 7.41661C38.333 7.84839 41.9724 11.6025 41.9782 17.3596L42 34.2111C42.0078 40.4881 38.0644 44.3501 31.7436 44.3601L16.3038 44.3801C10.0224 44.3881 6.02963 40.4341 6.02173 34.1391L6.00001 17.4856C5.99211 11.6905 9.50305 7.94635 15.0123 7.44061L15.0104 5.94135C15.0084 5.06179 15.66 4.40013 16.5289 4.40013C17.3977 4.39813 18.0494 5.05779 18.0513 5.93735L18.0533 7.33665L29.7828 7.32067L29.7808 5.92137C29.7788 5.04181 30.4304 4.38213 31.2994 4.38013C32.1484 4.37813 32.8198 5.03781 32.8218 5.91737ZM9.04295 18.1033L38.9392 18.0633V17.3636C38.8544 13.0658 36.698 10.8109 32.8276 10.4751L32.8296 12.0143C32.8296 12.8739 32.1602 13.5555 31.3112 13.5555C30.4424 13.5575 29.7886 12.8779 29.7886 12.0183L29.7868 10.3991L18.0573 10.4151L18.0592 12.0323C18.0592 12.8939 17.4096 13.5735 16.5407 13.5735C15.6719 13.5755 15.0183 12.8979 15.0183 12.0363L15.0163 10.4971C11.1657 10.8829 9.03505 13.1458 9.04097 17.4816L9.04295 18.1033ZM30.4798 27.1887V27.2107C30.4996 28.1303 31.25 28.8279 32.1602 28.8079C33.0488 28.7859 33.7578 28.0243 33.738 27.1047C33.6966 26.2251 32.9836 25.5075 32.097 25.5095C31.1888 25.5295 30.4778 26.2691 30.4798 27.1887ZM32.1108 36.1641C31.2026 36.1441 30.47 35.3865 30.468 34.4671C30.4482 33.5475 31.1768 32.7859 32.0852 32.7639H32.105C33.033 32.7639 33.7854 33.5215 33.7854 34.4611C33.7874 35.4005 33.037 36.1621 32.1108 36.1641ZM22.3442 27.2207C22.3838 28.1403 23.136 28.8579 24.0444 28.8179C24.933 28.7759 25.642 28.0163 25.6024 27.0967C25.5806 26.1971 24.85 25.4975 23.9614 25.4995C23.0532 25.5395 22.3422 26.3011 22.3442 27.2207ZM24.0524 36.0743C23.144 36.1143 22.3936 35.3965 22.3522 34.4771C22.3522 33.5575 23.061 32.7979 23.9694 32.7559C24.858 32.7539 25.5906 33.4535 25.6104 34.3511C25.6518 35.2727 24.941 36.0323 24.0524 36.0743ZM14.2087 27.2907C14.2482 28.2101 15.0005 28.9299 15.9088 28.8879C16.7974 28.8479 17.5063 28.0863 17.4649 27.1667C17.4451 26.2671 16.7145 25.5675 15.8239 25.5695C14.9156 25.6095 14.2067 26.3711 14.2087 27.2907ZM15.9167 36.0843C15.0084 36.1263 14.258 35.4065 14.2166 34.4871C14.2146 33.5675 14.9255 32.8059 15.8338 32.7659C16.7224 32.7639 17.455 33.4635 17.4747 34.3631C17.5162 35.2827 16.8073 36.0443 15.9167 36.0843Z" fill="white"/>
</g>
</svg>
