<svg width="48" height="49" viewBox="0 0 48 49" fill="none" xmlns="http://www.w3.org/2000/svg">
<g id="location 2">
<path id="Vector" fill-rule="evenodd" clip-rule="evenodd" d="M7 21.0157C7 11.8159 14.6878 4.38013 23.9868 4.38013C33.3122 4.38013 41 11.8159 41 21.0157C41 25.6515 39.314 29.9553 36.539 33.6033C33.4776 37.6271 29.7044 41.1331 25.457 43.8849C24.485 44.5209 23.6078 44.5689 22.5408 43.8849C18.2695 41.1331 14.4962 37.6271 11.461 33.6033C8.68396 29.9553 7 25.6515 7 21.0157ZM18.3885 21.5337C18.3885 24.6155 20.9034 27.0395 23.9868 27.0395C27.0724 27.0395 29.6116 24.6155 29.6116 21.5337C29.6116 18.4757 27.0724 15.9338 23.9868 15.9338C20.9034 15.9338 18.3885 18.4757 18.3885 21.5337Z" fill="white"/>
</g>
</svg>
