<svg xmlns="http://www.w3.org/2000/svg" width="13" height="14" viewBox="0 0 13 14" fill="none">
<path fill-rule="evenodd" clip-rule="evenodd" d="M1.9679 6.01191C1.9679 3.65067 3.94105 1.74219 6.32776 1.74219C8.72124 1.74219 10.6944 3.65067 10.6944 6.01191C10.6944 7.20175 10.2617 8.30637 9.54944 9.24267C8.76369 10.2754 7.79525 11.1753 6.70511 11.8816C6.45563 12.0448 6.23049 12.0571 5.95663 11.8816C4.86034 11.1753 3.89188 10.2754 3.11286 9.24267C2.4001 8.30637 1.9679 7.20175 1.9679 6.01191ZM4.89088 6.14486C4.89088 6.93585 5.53637 7.55799 6.32776 7.55799C7.11972 7.55799 7.77143 6.93585 7.77143 6.14486C7.77143 5.35999 7.11972 4.70757 6.32776 4.70757C5.53637 4.70757 4.89088 5.35999 4.89088 6.14486Z" fill="#FACD49"/>
</svg>