<svg width="1024" height="1354" viewBox="0 0 1024 1354" fill="none" xmlns="http://www.w3.org/2000/svg">
<g opacity="0.1" clip-path="url(#clip0_2_814)">
<path d="M-795.126 1246.95C-799.071 1223.68 -785.65 881.905 -661.31 598.924C-549.696 345.266 -290.144 200.697 13.6335 383.01C339.12 578.404 619.873 598.053 846.254 541.055C1069.67 484.545 1218.25 314.274 1284.97 205.699C1429.79 -28.9325 1643.72 116.199 1568.58 424.907C1533.12 568.51 1439.65 608.66 1277.68 623.56C1108.38 639.135 858.247 606.074 511.307 673.45C176.717 738.682 -199.809 895.345 -411.534 1094.76C-636.861 1307.16 -762.092 1450 -795.126 1246.95Z" fill="url(#paint0_linear_2_814)"/>
</g>
<defs>
<linearGradient id="paint0_linear_2_814" x1="1460.47" y1="1062.32" x2="-743.86" y2="379.04" gradientUnits="userSpaceOnUse">
<stop stop-color="#5D50C6"/>
<stop offset="1" stop-color="#F85E9F"/>
</linearGradient>
<clipPath id="clip0_2_814">
<rect width="2506.2" height="958.638" fill="white" transform="translate(-933.527 407.874) rotate(-9.36634)"/>
</clipPath>
</defs>
</svg>
