<svg width="48" height="49" viewBox="0 0 48 49" fill="none" xmlns="http://www.w3.org/2000/svg">
<g id="ticket 1">
<path id="Vector" fill-rule="evenodd" clip-rule="evenodd" d="M43.5744 21.4581C43.3036 21.7213 42.9362 21.8715 42.5494 21.8715C41.118 21.8715 39.9574 22.9991 39.9574 24.3707C39.9574 25.7517 41.1044 26.8735 42.5222 26.8887C43.321 26.8961 44 27.4373 44 28.2133V33.0331C44 37.0899 40.615 40.3801 36.4372 40.3801H30.1316C29.4796 40.3801 28.9516 39.8671 28.9516 39.2339V35.1751C28.9516 34.3859 28.3134 33.7659 27.501 33.7659C26.708 33.7659 26.0502 34.3859 26.0502 35.1751V39.2339C26.0502 39.8671 25.5222 40.3801 24.8724 40.3801H11.5629C7.40426 40.3801 4 37.0917 4 33.0331V28.2133C4 27.4373 4.67892 26.8961 5.47776 26.8887C6.89748 26.8735 8.04256 25.7517 8.04256 24.3707C8.04256 23.0365 6.9207 22.0219 5.45068 22.0219C5.06382 22.0219 4.69632 21.8715 4.42554 21.6085C4.15474 21.3455 4 20.9885 4 20.6127V15.7459C4 11.6947 7.412 8.38013 11.5822 8.38013H24.8724C25.5222 8.38013 26.0502 8.89311 26.0502 9.52635V14.3367C26.0502 15.1071 26.708 15.7459 27.501 15.7459C28.3134 15.7459 28.9516 15.1071 28.9516 14.3367V9.52635C28.9516 8.89311 29.4796 8.38013 30.1316 8.38013H36.4372C40.615 8.38013 44 11.6684 44 15.7272V20.4623C44 20.8381 43.8452 21.1951 43.5744 21.4581ZM27.501 30.1205C28.3134 30.1205 28.9516 29.4817 28.9516 28.7113V21.1951C28.9516 20.4247 28.3134 19.7859 27.501 19.7859C26.708 19.7859 26.0502 20.4247 26.0502 21.1951V28.7113C26.0502 29.4817 26.708 30.1205 27.501 30.1205Z" fill="white"/>
</g>
</svg>
